<svg xmlns="http://www.w3.org/2000/svg" viewBox="0 0 500 500"><g id="freepik--Floor--inject-46"><path d="M480.66,481.29c0,.14-103.28.26-230.65.26s-230.67-.12-230.67-.26S122.6,481,250,481,480.66,481.15,480.66,481.29Z" style="fill:#263238"></path></g><g id="freepik--Gears--inject-46"><path d="M86.19,61.42A48,48,0,0,1,98,56.36l2.45-11.61L120,44.47,122.83,56a47.92,47.92,0,0,1,11.89,4.73l9.95-6.47L158.75,68l-6.19,10.12a48,48,0,0,1,5.07,11.76l11.61,2.46.28,19.63L158,114.72a48.38,48.38,0,0,1-4.73,11.9l6.47,9.94L146,150.65l-10.12-6.19a48,48,0,0,1-11.76,5.06l-2.46,11.61-19.64.28-2.79-11.54a47.92,47.92,0,0,1-11.89-4.73l-10,6.47L63.34,137.92l6.19-10.12A48,48,0,0,1,64.47,116l-11.62-2.46L52.58,94l11.54-2.79a48,48,0,0,1,4.72-11.9l-6.47-9.94L76.06,55.23l10.13,6.19Z" style="fill:#FF725E;fill-rule:evenodd"></path><path d="M122.63,97.16A25.15,25.15,0,0,0,122,93a16.09,16.09,0,0,0-1.89-4.48,16.93,16.93,0,0,0-11.38-7.88,16.77,16.77,0,0,0-8.8.75,16,16,0,0,0-4.24,2.28,15.47,15.47,0,0,0-3.54,3.56,16.69,16.69,0,0,0,0,19.79,20.62,20.62,0,0,0,1.64,2,18,18,0,0,0,1.9,1.61,15.75,15.75,0,0,0,4.24,2.29,16.86,16.86,0,0,0,8.8.74,16.93,16.93,0,0,0,11.38-7.88,16.33,16.33,0,0,0,1.9-4.48,25.63,25.63,0,0,0,.62-4.12.8.8,0,0,1,0,.27c0,.22,0,.48,0,.81a7.6,7.6,0,0,1-.11,1.32,11.33,11.33,0,0,1-.32,1.77,16.08,16.08,0,0,1-1.84,4.58,17.14,17.14,0,0,1-11.55,8.16,17.29,17.29,0,0,1-9-.72A16.36,16.36,0,0,1,95.39,111a15.81,15.81,0,0,1-3.65-3.65,17.16,17.16,0,0,1,0-20.4,19.2,19.2,0,0,1,1.69-2,20.26,20.26,0,0,1,2-1.66A16,16,0,0,1,99.76,81,17.1,17.1,0,0,1,116,83.5a17,17,0,0,1,4.33,4.9A16.19,16.19,0,0,1,122.2,93a11.65,11.65,0,0,1,.32,1.78,7.42,7.42,0,0,1,.11,1.31c0,.33,0,.6,0,.81A.9.9,0,0,1,122.63,97.16Z" style="fill:#fff"></path><path d="M117.28,109.54c.1-.1,3.8,3.44,8.27,7.91s8,8.17,7.91,8.27-3.81-3.44-8.28-7.9S117.18,109.64,117.28,109.54Z" style="fill:#fff"></path><path d="M220.43,135.73a61.42,61.42,0,0,1,15.09-6.5l3.16-14.91,25.2-.35,3.58,14.81a61.54,61.54,0,0,1,15.27,6.07l12.77-8.31,18.07,17.57-7.94,13a62,62,0,0,1,6.5,15.09l14.9,3.16.36,25.2-14.81,3.58a61.93,61.93,0,0,1-6.07,15.27l8.3,12.77-17.57,18.07-13-7.94a62,62,0,0,1-15.1,6.5L266,263.71l-25.21.36-3.58-14.81a61.85,61.85,0,0,1-15.27-6.07l-12.76,8.3L191.1,233.92l7.94-13a61.62,61.62,0,0,1-6.49-15.1l-14.91-3.15-.35-25.21,14.81-3.57a61.54,61.54,0,0,1,6.07-15.27l-8.31-12.77,17.57-18.08,13,7.95Z" style="fill:#FF725E;fill-rule:evenodd"></path><path d="M243.81,215.28h.3l.86,0,3.31,0,12.37-.08-.15.15c-.05-2.12-.11-4.51-.17-7.07v-.12l.11-.05A38.06,38.06,0,0,0,271,200.8a26.72,26.72,0,0,0,4.44-5.68,19.66,19.66,0,0,0,2.44-7.23,24.05,24.05,0,0,0-3.79-15.84,28.77,28.77,0,0,0-13.79-11,23.73,23.73,0,0,0-13.24-.92,26,26,0,0,0-11.51,5.32,23.39,23.39,0,0,0-6.94,9.59c-.31.91-.7,1.78-.93,2.69s-.44,1.82-.66,2.71a28.86,28.86,0,0,0-.47,5.34,24.81,24.81,0,0,0,.63,5,23.08,23.08,0,0,0,1.63,4.48,25.77,25.77,0,0,0,5,6.91,34.14,34.14,0,0,0,10.32,7.05l.06,0v.06q-.18,2.9-.27,4.41c0,.49,0,.86-.07,1.14a2.55,2.55,0,0,1,0,.39,1.53,1.53,0,0,1,0-.36c0-.27,0-.64,0-1.12,0-1,.09-2.51.16-4.47l.06.1a33.88,33.88,0,0,1-10.47-7,25.71,25.71,0,0,1-5.1-7,23.44,23.44,0,0,1-1.68-4.55,25.79,25.79,0,0,1-.67-5.12,29.79,29.79,0,0,1,.46-5.43c.22-.91.44-1.82.66-2.75s.63-1.82.94-2.74a23.9,23.9,0,0,1,7.06-9.81A26.49,26.49,0,0,1,247,159.63a24.19,24.19,0,0,1,13.52.93,29.23,29.23,0,0,1,14,11.21,23.93,23.93,0,0,1,3.37,7.95,14.5,14.5,0,0,1,.38,2.07,13.19,13.19,0,0,1,.2,2.07c0,.69.06,1.38.07,2.06l-.19,2a19.82,19.82,0,0,1-2.52,7.39,27.21,27.21,0,0,1-4.53,5.77,38.36,38.36,0,0,1-10.74,7.26l.11-.17c0,2.56.08,5,.11,7.08v.16h-.16l-12.46-.08-3.27,0h-.84Z" style="fill:#fff"></path><path d="M260.89,220a71.66,71.66,0,0,1-8.65.27,73,73,0,0,1-8.65-.26,73,73,0,0,1,8.65-.26A71.91,71.91,0,0,1,260.89,220Z" style="fill:#fff"></path><path d="M255.29,226.5a6.66,6.66,0,0,1-3.06.36,6.74,6.74,0,0,1-3-.55,15,15,0,0,1,3.05,0A14.73,14.73,0,0,1,255.29,226.5Z" style="fill:#fff"></path><path d="M247.34,215.28a.9.9,0,0,1,0-.28v-.84c0-.78,0-1.85.05-3.22.07-2.83.16-6.86.28-11.83.06-2.5.14-5.23.21-8.17a5.37,5.37,0,0,0-.29-2.11,1.39,1.39,0,0,0-1.52-1,2,2,0,0,0-1.34,1.52,3.1,3.1,0,0,0,.28,2.2,5,5,0,0,0,3.86,2.57,5.14,5.14,0,0,0,4.5-1.8,7.68,7.68,0,0,0,1.89-4.84,4.56,4.56,0,0,0-.53-2.56,1.88,1.88,0,0,0-2.11-.9,1.9,1.9,0,0,0-1,2.07,5.23,5.23,0,0,0,1.2,2.35,9.52,9.52,0,0,0,4.17,3.22,5.42,5.42,0,0,0,2.51.3,5.07,5.07,0,0,0,2.28-.95,4,4,0,0,0,1.43-1.9,2.92,2.92,0,0,0-.13-2.25,1.94,1.94,0,0,0-1.71-1.16,2.37,2.37,0,0,0-1.79,1.07c-.83,1.23-.84,2.84-1.05,4.27-.32,2.91-.53,5.64-.72,8.13-.33,5-.6,9-.79,11.8-.1,1.37-.17,2.44-.22,3.21,0,.35-.05.62-.07.84a1.18,1.18,0,0,1,0,.28,1.23,1.23,0,0,1,0-.28c0-.22,0-.5,0-.84,0-.77.07-1.85.12-3.22.12-2.79.31-6.83.64-11.81.16-2.5.35-5.23.65-8.16.09-.73.16-1.47.29-2.23a5.46,5.46,0,0,1,.81-2.25,2.83,2.83,0,0,1,2.16-1.28,2.42,2.42,0,0,1,2.14,1.41,3.38,3.38,0,0,1,.17,2.63,4.46,4.46,0,0,1-1.59,2.14,5.55,5.55,0,0,1-2.51,1.05,5.85,5.85,0,0,1-2.75-.32,9.94,9.94,0,0,1-4.4-3.38,5.55,5.55,0,0,1-1.31-2.59,2.42,2.42,0,0,1,1.35-2.64,2.39,2.39,0,0,1,2.74,1.12,5,5,0,0,1,.6,2.85,8.2,8.2,0,0,1-2,5.16,5.62,5.62,0,0,1-4.94,2,5.48,5.48,0,0,1-4.23-2.85,3.61,3.61,0,0,1-.3-2.54,2.47,2.47,0,0,1,1.71-1.84,1.68,1.68,0,0,1,1.27.29,2.22,2.22,0,0,1,.75,1,5.75,5.75,0,0,1,.3,2.3c-.1,2.93-.19,5.66-.28,8.16-.18,5-.33,9-.44,11.83-.06,1.36-.11,2.44-.15,3.21,0,.34,0,.62,0,.84A1,1,0,0,1,247.34,215.28Z" style="fill:#fff"></path><path d="M259.37,223.23a46.55,46.55,0,0,1-7,.26,46.55,46.55,0,0,1-7-.26,48.18,48.18,0,0,1,7-.26A48.18,48.18,0,0,1,259.37,223.23Z" style="fill:#fff"></path><path d="M385.94,176a39.63,39.63,0,0,1,9.73-4.37l1.89-9.7,16.35-.49,2.47,9.57a40,40,0,0,1,10,3.78l8.2-5.51,11.9,11.21-5,8.51a40.57,40.57,0,0,1,4.37,9.73l9.7,1.9.48,16.34-9.57,2.47a40,40,0,0,1-3.78,10l5.52,8.2-11.22,11.9-8.51-5a40,40,0,0,1-9.73,4.37l-1.89,9.7-16.35.49L398,249.45a40.39,40.39,0,0,1-10-3.79l-8.19,5.52L367.91,240l5-8.51a40.32,40.32,0,0,1-4.37-9.72l-9.7-1.9-.48-16.35L368,201a39.9,39.9,0,0,1,3.78-10l-5.52-8.2L377.43,171l8.51,5Z" style="fill:#FF725E;fill-rule:evenodd"></path><path d="M429.09,227.81a4.83,4.83,0,0,1-.79.05l-2.27,0-8.37.08-27.59.08h-2.23v-.26c0-10.31.06-19.55.08-26.28,0-3.3.07-6,.09-7.9,0-.89,0-1.6,0-2.14a6,6,0,0,1,.05-.74,3.24,3.24,0,0,1,0,.74c0,.54,0,1.25.05,2.14,0,1.92.05,4.6.08,7.9,0,6.73.05,16,.08,26.28l-.26-.26h2l27.59.07,8.37.09,2.27,0A4,4,0,0,1,429.09,227.81Z" style="fill:#fff"></path><path d="M424.54,199.74a10.59,10.59,0,0,1-1.22,1.17l-3.46,3c-2.94,2.55-7,6.05-11.55,9.88l-.68.58-.18.15-.17-.16-5.13-4.77h.32l-7.54,6.22-2.19,1.75a4.76,4.76,0,0,1-.82.58,4.19,4.19,0,0,1,.72-.7l2.1-1.86,7.42-6.36.16-.14.16.14,5.15,4.75h-.34l.69-.58c4.52-3.83,8.64-7.28,11.64-9.76l3.57-2.91A10.19,10.19,0,0,1,424.54,199.74Z" style="fill:#fff"></path><path d="M424.54,208.33a13.27,13.27,0,0,1-.18-2.56c-.05-1.59-.08-3.78-.08-6.23l.26.26h-.44c-2.55,0-4.86,0-6.53-.08a14.88,14.88,0,0,1-2.71-.18,14.23,14.23,0,0,1,2.71-.19c1.67,0,4-.07,6.53-.07h.7v.26c0,2.45,0,4.64-.08,6.23A13.27,13.27,0,0,1,424.54,208.33Z" style="fill:#fff"></path><path d="M160,229.24a9.15,9.15,0,0,1-1.16-2.78,8.9,8.9,0,0,1-.66-2.94,8.87,8.87,0,0,1,1.16,2.78A8.76,8.76,0,0,1,160,229.24Z" style="fill:#263238"></path><path d="M170.64,250.64a40.64,40.64,0,0,1-6-10.38,56.77,56.77,0,0,1,3.05,5.15A53.42,53.42,0,0,1,170.64,250.64Z" style="fill:#263238"></path><path d="M186.24,268.71a39.41,39.41,0,0,1-8.38-8.53,55.79,55.79,0,0,1,4.24,4.22A55.27,55.27,0,0,1,186.24,268.71Z" style="fill:#263238"></path><path d="M206,282.1a25.6,25.6,0,0,1-5.41-2.61,24.5,24.5,0,0,1-4.93-3.42,58.53,58.53,0,0,1,5.19,3A55.4,55.4,0,0,1,206,282.1Z" style="fill:#263238"></path><path d="M228.72,289.42a37.27,37.27,0,0,1-11.62-2.82,35.44,35.44,0,0,1,5.82,1.38A35.58,35.58,0,0,1,228.72,289.42Z" style="fill:#263238"></path><path d="M252.59,289.94a25.28,25.28,0,0,1-6,.71,25.56,25.56,0,0,1-6-.18,53,53,0,0,1,6-.34A56.4,56.4,0,0,1,252.59,289.94Z" style="fill:#263238"></path><path d="M275.92,284.79a26.4,26.4,0,0,1-5.64,2,25.93,25.93,0,0,1-5.88,1.2,51.58,51.58,0,0,1,5.74-1.7A48.86,48.86,0,0,1,275.92,284.79Z" style="fill:#263238"></path><path d="M297.57,274.65A41.49,41.49,0,0,1,287,280.32a51,51,0,0,1,5.23-2.91A52.26,52.26,0,0,1,297.57,274.65Z" style="fill:#263238"></path><path d="M316.12,259.62a23.61,23.61,0,0,1-4.06,4.42,25.13,25.13,0,0,1-4.71,3.72,56.72,56.72,0,0,1,4.36-4.1C314.13,261.42,316,259.52,316.12,259.62Z" style="fill:#263238"></path><path d="M329.33,239.77a24.37,24.37,0,0,1-2.46,5.48,23.31,23.31,0,0,1-3.32,5c-.12-.09,1.29-2.36,2.86-5.25A57.82,57.82,0,0,1,329.33,239.77Z" style="fill:#263238"></path><path d="M337.53,217.3a34.54,34.54,0,0,1-1.62,5.76,34.41,34.41,0,0,1-2.12,5.61,34.22,34.22,0,0,1,1.62-5.77A33.44,33.44,0,0,1,337.53,217.3Z" style="fill:#263238"></path><path d="M345.18,194.61c.16.07-.76,2.58-1.84,5.7a34.18,34.18,0,0,1-2.21,5.57,33.53,33.53,0,0,1,1.72-5.74c.53-1.57,1.1-3,1.53-3.95A6.82,6.82,0,0,1,345.18,194.61Z" style="fill:#263238"></path><path d="M355.79,173.19a49.71,49.71,0,0,1-2.83,5.27,51.1,51.1,0,0,1-3,5.19,26.27,26.27,0,0,1,2.53-5.44A26.06,26.06,0,0,1,355.79,173.19Z" style="fill:#263238"></path><path d="M371.76,155.52c.09.12-2,1.78-4.42,4s-4.25,4.19-4.36,4.08a22,22,0,0,1,4-4.46A21.44,21.44,0,0,1,371.76,155.52Z" style="fill:#263238"></path><path d="M393.32,145.42a58.62,58.62,0,0,1-5.62,2c-3.1,1.11-5.57,2.15-5.63,2a23.89,23.89,0,0,1,5.46-2.5A24.41,24.41,0,0,1,393.32,145.42Z" style="fill:#263238"></path><path d="M417,142.78c0,.15-2.69.08-6,.2s-6,.33-6,.18a24.39,24.39,0,0,1,6-.7A23,23,0,0,1,417,142.78Z" style="fill:#263238"></path><path d="M440.1,148.67a55.5,55.5,0,0,1-5.66-1.95c-3.1-1.11-5.66-1.9-5.62-2a24.42,24.42,0,0,1,5.8,1.55A25.37,25.37,0,0,1,440.1,148.67Z" style="fill:#263238"></path><path d="M460.46,161.13c-.1.11-2.2-1.54-4.89-3.45s-4.92-3.38-4.85-3.51a25.5,25.5,0,0,1,5.15,3.08A24,24,0,0,1,460.46,161.13Z" style="fill:#263238"></path><path d="M472.47,174.4a26.18,26.18,0,0,1-3.56-4.82,13,13,0,0,1,3.56,4.82Z" style="fill:#263238"></path><path d="M32.51,88.66s.05-.31.18-.9l.6-2.65a68,68,0,0,1,3.33-9.89A74.44,74.44,0,0,1,44.89,61,82.21,82.21,0,0,1,60.15,45.33,80.9,80.9,0,0,1,83.41,32.75a85.11,85.11,0,0,1,14.36-3.47,92.43,92.43,0,0,1,15.65-.91,81.77,81.77,0,0,1,16.33,2.07,74.44,74.44,0,0,1,16.19,5.72A72.59,72.59,0,0,1,160.75,46,69.87,69.87,0,0,1,173,59.59,67.56,67.56,0,0,1,181.28,76,77.25,77.25,0,0,1,185,93.34c.11,1.46.27,2.91.34,4.35s.06,2.89.1,4.32-.08,2.87-.11,4.29-.23,2.83-.41,4.22a62.93,62.93,0,0,1-4.3,15.9,123.26,123.26,0,0,1-7.1,14q-3.86,6.57-7.46,12.74a74.76,74.76,0,0,0-8.73,24.8,109.79,109.79,0,0,0-1.42,11.44c-.27,3.63-.39,7.07-.41,10.29a113.49,113.49,0,0,0,.78,16.45,66.15,66.15,0,0,0,2.28,10.15c.37,1.14.68,2,.91,2.55.11.29.21.5.27.64a1.63,1.63,0,0,1,.08.22,23.06,23.06,0,0,1-1.35-3.38,61.44,61.44,0,0,1-2.39-10.15,112.66,112.66,0,0,1-.87-16.49c0-3.22.11-6.66.37-10.3A107.69,107.69,0,0,1,157,177.85a75,75,0,0,1,8.71-24.95l7.44-12.74a122.66,122.66,0,0,0,7.06-13.93,63.14,63.14,0,0,0,4.25-15.77c.18-1.39.27-2.79.4-4.19s.12-2.83.1-4.25-.07-2.86-.1-4.3-.23-2.88-.34-4.33a76.2,76.2,0,0,0-3.73-17.27,66.69,66.69,0,0,0-8.18-16.23,69.19,69.19,0,0,0-12.2-13.48,72.15,72.15,0,0,0-14.69-9.79,73.47,73.47,0,0,0-16.08-5.69,80.83,80.83,0,0,0-16.24-2.08,92.44,92.44,0,0,0-15.56.88,85,85,0,0,0-14.29,3.43A80.67,80.67,0,0,0,60.38,45.62a82.06,82.06,0,0,0-15.25,15.5A75.16,75.16,0,0,0,36.8,75.3a71.18,71.18,0,0,0-3.41,9.84l-.65,2.63Z" style="fill:#263238"></path></g><g id="freepik--Character--inject-46"><path d="M275.9,456.39l15,5.26-.16,14.43c-7.18,2-8.19,5.66-8.19,5.66l15-.34,13.06-26.57-10.33-6.76L281,439.61" style="fill:#FF725E"></path><g style="opacity:0.6000000000000001"><polygon points="310.63 454.83 297.57 481.4 282.55 481.74 284.19 479.45 296.39 478.5 308.44 453.39 310.63 454.83" style="fill:#fff"></polygon></g><path d="M290.69,469.47c.11.15,1-.36,2.13-.35s2,.47,2.14.32-.73-1-2.14-1S290.55,469.36,290.69,469.47Z" style="fill:#263238"></path><path d="M290.85,465.89c.16.1.8-.8,2-1.06s2.16.27,2.25.11-.13-.32-.55-.54a2.78,2.78,0,0,0-1.85-.21,2.74,2.74,0,0,0-1.57,1C290.83,465.55,290.78,465.85,290.85,465.89Z" style="fill:#263238"></path><path d="M290.65,461.3c.17.08.66-.8,1.7-1.19s2-.06,2.06-.23-.16-.28-.58-.43a2.61,2.61,0,0,0-3,1.15C290.58,461,290.57,461.27,290.65,461.3Z" style="fill:#263238"></path><path d="M289.55,461.29c.18,0,.07-1,.52-2s1.18-1.6,1.09-1.76-1.17.25-1.7,1.5S289.39,461.37,289.55,461.29Z" style="fill:#263238"></path><path d="M287.77,459.6a6.45,6.45,0,0,0,.35-2c.07-.72.14-1.45.2-2.2a4.35,4.35,0,0,0,0-1.4,1.21,1.21,0,0,0-.53-.74.94.94,0,0,0-1,0,2.84,2.84,0,0,0-.86,1.33,5.2,5.2,0,0,0-.27,1.36,5,5,0,0,0,.4,2.27c.54,1.23,1.29,1.66,1.32,1.61a16.29,16.29,0,0,1-.88-1.77,5.17,5.17,0,0,1-.23-2.07,5.26,5.26,0,0,1,.27-1.18,2.38,2.38,0,0,1,.62-1,.28.28,0,0,1,.31,0,.61.61,0,0,1,.25.35,5.25,5.25,0,0,1,0,1.2c0,.75,0,1.48-.06,2.2A6.36,6.36,0,0,0,287.77,459.6Z" style="fill:#263238"></path><path d="M287.53,460.25c.06,0-.39-.69-1.54-1.07a3.75,3.75,0,0,0-4.26,1.52.7.7,0,0,0,.06.58.86.86,0,0,0,.4.33,2.54,2.54,0,0,0,.7.14,6.2,6.2,0,0,0,1.22,0,6.58,6.58,0,0,0,2-.5c1.07-.47,1.57-1,1.52-1.08s-.64.31-1.68.64a7.91,7.91,0,0,1-1.87.34,7.12,7.12,0,0,1-1.12,0,1.57,1.57,0,0,1-.5-.1c-.13-.07-.1-.05-.09-.1a1.08,1.08,0,0,1,.29-.35,3.65,3.65,0,0,1,.44-.36,3.58,3.58,0,0,1,1-.46,3.67,3.67,0,0,1,1.81-.1A16.19,16.19,0,0,1,287.53,460.25Z" style="fill:#263238"></path><g style="opacity:0.6000000000000001"><path d="M298.65,454.64a1.78,1.78,0,0,0,3.56-.08,1.78,1.78,0,0,0-3.56.08Z" style="fill:#fff"></path></g><path d="M198.89,450.35,199.1,470s-19.92,6.81-20.24,10.45l38.14,1,.94-30.64Z" style="fill:#FF725E"></path><g style="opacity:0.6000000000000001"><path d="M210.93,468.66a1.56,1.56,0,0,1,1,1.81,1.49,1.49,0,0,1-1.78,1,1.64,1.64,0,0,1-1.08-1.91,1.55,1.55,0,0,1,2-.88" style="fill:#fff"></path></g><g style="opacity:0.6000000000000001"><path d="M217,481.43l0-3.09-36.56.22s-1.72.7-1.56,1.9Z" style="fill:#fff"></path></g><path d="M198.48,469.8c0,.19.93.3,1.84.92s1.36,1.42,1.54,1.35-.08-1.15-1.18-1.89S198.45,469.63,198.48,469.8Z" style="fill:#263238"></path><path d="M194.44,471.36c-.05.17.75.51,1.37,1.32s.77,1.64,1,1.63.33-1.05-.45-2S194.45,471.18,194.44,471.36Z" style="fill:#263238"></path><path d="M192.05,476.08c.17.05.45-.88,0-1.91s-1.32-1.46-1.4-1.3.44.71.8,1.56S191.86,476.06,192.05,476.08Z" style="fill:#263238"></path><path d="M198.94,465.32c.07.17.93-.07,2,0s1.86.45,2,.3-.67-.85-1.91-.94S198.85,465.17,198.94,465.32Z" style="fill:#263238"></path><g style="opacity:0.30000000000000004"><polygon points="198.94 454.25 198.97 457.75 217.72 458.06 217.82 454.9 198.94 454.25"></polygon></g><path d="M199,461.35a3.55,3.55,0,0,0,1.91,0,8.8,8.8,0,0,0,2-.56,9.63,9.63,0,0,0,1.11-.56,2.57,2.57,0,0,0,.59-.43.82.82,0,0,0,.11-1,1,1,0,0,0-.8-.45,3,3,0,0,0-.72.08,8,8,0,0,0-1.2.38,6.7,6.7,0,0,0-1.79,1.11c-.91.8-1.23,1.49-1.16,1.52s.52-.51,1.44-1.16a7.53,7.53,0,0,1,1.73-.91,6.47,6.47,0,0,1,1.11-.31c.4-.1.75-.09.85.09s0,.09,0,.21a2,2,0,0,1-.43.32,11.54,11.54,0,0,1-1,.55,10.79,10.79,0,0,1-1.86.66A14,14,0,0,0,199,461.35Z" style="fill:#263238"></path><path d="M199.2,461.62c.07,0,.45-.62.55-1.83a6.15,6.15,0,0,0-.2-2.1,6.59,6.59,0,0,0-.46-1.17,1.56,1.56,0,0,0-1.19-1,.9.9,0,0,0-.82.51,2.56,2.56,0,0,0-.21.69,4.32,4.32,0,0,0,0,1.29,4.39,4.39,0,0,0,.76,2c.72,1,1.49,1.25,1.51,1.19s-.57-.47-1.12-1.43a4.49,4.49,0,0,1-.56-1.81,4.09,4.09,0,0,1,.06-1.1c.07-.41.23-.73.39-.69s.5.32.65.65a6.6,6.6,0,0,1,.44,1,6.91,6.91,0,0,1,.33,1.92C199.32,460.9,199.1,461.59,199.2,461.62Z" style="fill:#263238"></path><polygon points="287.55 440.33 243.63 424 289.8 417.52 292.12 395.03 205.79 402.56 193.6 420.12 196.81 442.14 280.92 463.52 287.55 440.33" style="fill:#263238"></polygon><path d="M194.43,456.07l-4.2-80.37a22.62,22.62,0,0,1,11.27-18.91h0A22.62,22.62,0,0,1,220,354.91l56,18.68,30.74,7.9s5.24,12.92,2.16,22.95c-3,9.83-13.78,16.36-23.25,13.55-11.77-3.48-65.79-26.71-65.79-26.71v65.44Z" style="fill:#263238"></path><path d="M284.82,418.21a1.89,1.89,0,0,1-.33-.11l-1-.37-3.68-1.47-13.47-5.49L222,392.45l-2.26-.93.36-.24c0,18.18-.06,34.53-.08,46.37,0,5.88-.06,10.64-.08,14,0,1.62,0,2.89,0,3.79,0,.41,0,.73,0,1a1.39,1.39,0,0,1,0,.33,1.19,1.19,0,0,1,0-.33c0-.25,0-.57,0-1,0-.9,0-2.17-.05-3.79,0-3.33,0-8.09-.08-14,0-11.84,0-28.19-.08-46.37v-.39l.36.15,2.26.93,44.31,18.45,13.41,5.65,3.64,1.56.94.42A1.44,1.44,0,0,1,284.82,418.21Z" style="fill:#455a64"></path><path d="M233.09,418.3a18.45,18.45,0,0,1,10.53,5.83c-.11.12-2.11-1.74-5-3.34S233.05,418.46,233.09,418.3Z" style="fill:#455a64"></path><path d="M215,380.4a26.58,26.58,0,0,1,3,5.44,25.75,25.75,0,0,1,2.09,5.83,61.26,61.26,0,0,1-2.56-5.62A61.14,61.14,0,0,1,215,380.4Z" style="fill:#455a64"></path><polygon points="215.1 344.99 205.2 343.14 194.79 353.75 196.71 360.51 208.84 356.05 215.1 344.99" style="fill:#ffbe9d"></polygon><path d="M178.48,227.16l-2.68.22s-4.83.79-4.83.9-2.12,3.07-2.12,3.08l-1.95,3a2.83,2.83,0,0,0,2.72-.5l-.68,1.51a3,3,0,0,0,3.73-1.45,33.72,33.72,0,0,1,2.1-3l.88-.08c.07.18,3.46,5,3.54,4.85s2.88-2.83,2.88-2.83Z" style="fill:#eb996e"></path><path d="M185.67,248l.79-14.84-7.52-8.52-8.27.5-3.38,2.36c.17.82,2.52,1.38,5.05.65a12.72,12.72,0,0,1,5.21-.17l3.18,5.55-2.1,2.32,2.69,14.23Z" style="fill:#ffbe9d"></path><path d="M163.72,228.43H190.6a1.23,1.23,0,0,1,1.23,1.23h0a1.23,1.23,0,0,1-1.23,1.23H163.72l-2.63-1.23Z" style="fill:#263238"></path><path d="M177.33,252l-2.74-6.73a6.41,6.41,0,0,1-.46-2.7c.12-2.42.3-7.28-.07-8.39-.5-1.51-2.51-6.65-1.38-7.4s2.69-1,3.79,2,4.48,9.52,4.48,9.52L183.51,249Z" style="fill:#ffbe9d"></path><path d="M180.61,237.62a19.26,19.26,0,0,1-1.56-2.88c-.9-1.78-2.12-4.37-3.42-7.05a2,2,0,0,0-1.59-1,1.45,1.45,0,0,0-1.34,1,3.88,3.88,0,0,0,.05,1.76c.11.58.24,1.11.36,1.59.53,1.93,1.08,3.06,1,3.09s-.2-.24-.46-.75a16.43,16.43,0,0,1-.89-2.23c-.15-.49-.3-1-.43-1.61a4.1,4.1,0,0,1-.09-2,1.94,1.94,0,0,1,1.78-1.37,2.46,2.46,0,0,1,2,1.27c1.39,2.84,2.49,5.32,3.32,7.18A20.39,20.39,0,0,1,180.61,237.62Z" style="fill:#eb996e"></path><polygon points="305.88 381.31 303.13 376.5 273.82 369.16 277.27 375.12 305.88 381.31" style="fill:#ffbe9d"></polygon><path d="M174.78,252l18.45,43.71a17,17,0,0,0,9.19,9.11l39.81,16.35,9.27-25.65-38.77-13.72-25.18-35.91Z" style="fill:#FF725E"></path><path d="M234.72,295.92c0,1-4.3,32.84-4.3,39.34s12.44,13.55,12.44,13.55l13.63,28.93H305l-16.59-31.15-7.5-25a58.67,58.67,0,0,0-15.06-25l-8.11-5.43Z" style="fill:#FF725E"></path><path d="M248.81,321,257,355.25l-41.12-11.59-7,12.38,53.49,24.37a15,15,0,0,0,18.54-5.05h0A15,15,0,0,0,283.14,363l-12-46.8a11.44,11.44,0,0,0-14.73-8h0A11.45,11.45,0,0,0,248.81,321Z" style="fill:#FF725E"></path><path d="M242.86,348.81a1.56,1.56,0,0,1-.47-.2c-.3-.15-.74-.38-1.3-.69a38.4,38.4,0,0,1-4.51-3,18.5,18.5,0,0,1-5.3-6c-1.32-2.85-1.23-6.35-.75-9.78s1.21-6.68,1.63-9.66.77-5.66.94-7.93.2-4.1.19-5.37a17.82,17.82,0,0,1,0-2,2.05,2.05,0,0,1,.08.51c0,.33.08.82.12,1.46a51.91,51.91,0,0,1,0,5.41c-.12,2.28-.4,5-.84,8s-1.09,6.24-1.58,9.66-.56,6.8.66,9.5a18.53,18.53,0,0,0,5.1,5.95,45.78,45.78,0,0,0,4.39,3.1C242.27,348.42,242.88,348.78,242.86,348.81Z" style="fill:#263238"></path><path d="M265.53,312a24.42,24.42,0,0,0-5.54-1.33,23.52,23.52,0,0,0-5.67.58,9.77,9.77,0,0,1,5.71-1.1A9.9,9.9,0,0,1,265.53,312Z" style="fill:#263238"></path><path d="M260,293.52s-.24.32-.74.83-1.24,1.23-2.18,2.1c-1.87,1.74-4.52,4.08-7.56,6.52s-5.9,4.51-8,6c-1,.72-1.92,1.29-2.52,1.66a4.87,4.87,0,0,1-1,.55,4.44,4.44,0,0,1,.85-.71l2.43-1.8c2-1.52,4.86-3.64,7.9-6.07s5.71-4.71,7.64-6.38l2.28-2A4.57,4.57,0,0,1,260,293.52Z" style="fill:#263238"></path><path d="M212.72,281.86c.05.15-1.44.78-3.09,1.87s-2.84,2.19-2.95,2.08a10.29,10.29,0,0,1,6-3.95Z" style="fill:#263238"></path><path d="M252.75,336.54a2.92,2.92,0,0,1-.9.29,17.07,17.07,0,0,1-2.52.44,22.93,22.93,0,0,1-3.8.1,24.2,24.2,0,0,1-9-2.25,22.78,22.78,0,0,1-3.31-1.89,17.83,17.83,0,0,1-2-1.57c-.45-.41-.68-.65-.65-.68s1.06.81,2.87,1.95a27.22,27.22,0,0,0,7.62,3.24,26.64,26.64,0,0,0,8.25.73C251.43,336.75,252.73,336.45,252.75,336.54Z" style="fill:#fafafa"></path><path d="M255.53,351.58a5.21,5.21,0,0,1-1.84.33,16.13,16.13,0,0,1-4.51-.3,16.49,16.49,0,0,1-4.28-1.49,4.85,4.85,0,0,1-1.56-1,36.47,36.47,0,0,0,5.94,2A39.18,39.18,0,0,0,255.53,351.58Z" style="fill:#fafafa"></path><path d="M276.79,342.24a3,3,0,0,1-.76.45,23.72,23.72,0,0,1-2.21,1,33.75,33.75,0,0,1-15.71,2.17,22,22,0,0,1-2.39-.36,2.69,2.69,0,0,1-.86-.23c0-.09,1.26.1,3.28.22a39.78,39.78,0,0,0,15.55-2.15C275.6,342.68,276.75,342.16,276.79,342.24Z" style="fill:#fafafa"></path><path d="M273,325.49c0,.08-1.28-.16-3.32-.4a52.33,52.33,0,0,0-8-.34,53.79,53.79,0,0,0-8,.91c-2,.39-3.25.72-3.28.64a3,3,0,0,1,.84-.34c.55-.19,1.36-.41,2.36-.66a42.66,42.66,0,0,1,8-1.07,41.81,41.81,0,0,1,8.07.49c1,.17,1.85.34,2.41.49A2.75,2.75,0,0,1,273,325.49Z" style="fill:#fafafa"></path><path d="M281.47,372.28a4.33,4.33,0,0,1-1.17-.23,27.16,27.16,0,0,1-3.1-1,40.83,40.83,0,0,1-17.36-12.18,28.32,28.32,0,0,1-1.95-2.6,4.56,4.56,0,0,1-.62-1c.08-.05,1.05,1.34,2.85,3.37a45.36,45.36,0,0,0,17.21,12.09C279.86,371.75,281.49,372.19,281.47,372.28Z" style="fill:#fafafa"></path><path d="M244.6,371.76a11.48,11.48,0,0,1-.12-2.84,31.93,31.93,0,0,1,1-6.8,31.58,31.58,0,0,1,2.46-6.43,11.64,11.64,0,0,1,1.5-2.42,25.37,25.37,0,0,1-1.17,2.58,40.59,40.59,0,0,0-2.28,6.4,41.14,41.14,0,0,0-1.15,6.69A22.45,22.45,0,0,1,244.6,371.76Z" style="fill:#fafafa"></path><path d="M219.85,360.51a8,8,0,0,1,0-2.39,13.62,13.62,0,0,1,1.78-5.52,17.88,17.88,0,0,1,3.86-4.31,9.15,9.15,0,0,1,1.94-1.39,13.36,13.36,0,0,1-1.69,1.67,21.35,21.35,0,0,0-3.66,4.3,15.28,15.28,0,0,0-1.86,5.3A14.79,14.79,0,0,1,219.85,360.51Z" style="fill:#fafafa"></path><path d="M301.8,371.51a16.45,16.45,0,0,1-2.89,1.28A54.78,54.78,0,0,1,291.6,375a30.9,30.9,0,0,1-7.59.82,12.65,12.65,0,0,1-1.32-.08,8.82,8.82,0,0,1-1-.14,2.72,2.72,0,0,1-.83-.22c0-.09,1.21.11,3.14.08a38.1,38.1,0,0,0,7.47-1c2.89-.64,5.45-1.43,7.3-2A24.71,24.71,0,0,1,301.8,371.51Z" style="fill:#fafafa"></path><path d="M290.82,351.74c.05,0-.26.64-1.1,1.25a15,15,0,0,1-3.53,1.86,21.76,21.76,0,0,1-3.82,1.12,6.23,6.23,0,0,1-1.21.13c-.29,0-.47-.11-.44-.12s.59-.08,1.57-.37,2.28-.7,3.71-1.25a22.48,22.48,0,0,0,3.51-1.67C290.36,352.18,290.74,351.7,290.82,351.74Z" style="fill:#fafafa"></path><path d="M283.94,331.66s0,.18-.15.36a3.18,3.18,0,0,1-.8.65,15.69,15.69,0,0,1-3,1.41,16.76,16.76,0,0,1-3.22.87c-.85.15-1.41,0-1.39,0s.51-.09,1.32-.32,1.91-.56,3.11-1a30.49,30.49,0,0,0,3-1.24,5.24,5.24,0,0,0,.84-.47C283.84,331.76,283.9,331.65,283.94,331.66Z" style="fill:#fafafa"></path><path d="M248.29,321.05a8.06,8.06,0,0,1-2.35.1,30.8,30.8,0,0,1-5.63-.79,30.09,30.09,0,0,1-5.38-1.82,8.49,8.49,0,0,1-2.06-1.14c.07-.15,3.28,1.46,7.56,2.46S248.29,320.89,248.29,321.05Z" style="fill:#fafafa"></path><path d="M277.08,312c.1.14-1.34,1.12-3.28,1.89s-3.64,1.12-3.67.94,1.56-.63,3.47-1.42S277,311.92,277.08,312Z" style="fill:#fafafa"></path><path d="M254.66,299a4.23,4.23,0,0,1,1.39,1.1,12.63,12.63,0,0,1,3.51,7.7,4.4,4.4,0,0,1-.08,1.77A17.15,17.15,0,0,0,254.66,299Z" style="fill:#fafafa"></path><path d="M223.15,313.23a3.76,3.76,0,0,1-.46-.94,16.32,16.32,0,0,1-.79-2.75,24.66,24.66,0,0,1,.07-9.39,49.66,49.66,0,0,1,2.72-9c.44-1.12.82-2,1.09-2.63a4,4,0,0,1,.48-.93,4.28,4.28,0,0,1-.29,1c-.26.74-.57,1.63-.94,2.67a61.77,61.77,0,0,0-2.55,9,27,27,0,0,0-.22,9.24C222.65,311.83,223.24,313.2,223.15,313.23Z" style="fill:#fafafa"></path><path d="M199.64,303.61a3.28,3.28,0,0,1,.17-1,23.88,23.88,0,0,1,.79-2.68A34.23,34.23,0,0,1,211,285a24.69,24.69,0,0,1,2.24-1.67,3.71,3.71,0,0,1,.88-.51c.05.08-1.13.91-2.88,2.46a38.52,38.52,0,0,0-10.31,14.79C200.09,302.23,199.72,303.64,199.64,303.61Z" style="fill:#fafafa"></path><path d="M203.42,268.49c0,.09-1.14.14-2.9.64A27.65,27.65,0,0,0,194,272a31.15,31.15,0,0,0-5.64,4.36c-1.3,1.29-2,2.22-2,2.17s.11-.27.39-.7a8,8,0,0,1,.56-.77,12.19,12.19,0,0,1,.81-.95,26.2,26.2,0,0,1,5.64-4.55,23.37,23.37,0,0,1,6.68-2.81,9.76,9.76,0,0,1,1.24-.23,5.89,5.89,0,0,1,.94-.09A2.15,2.15,0,0,1,203.42,268.49Z" style="fill:#fafafa"></path><path d="M194.09,254.85a31.39,31.39,0,0,0-8.6.66,30.73,30.73,0,0,0-7.87,3.51,8.17,8.17,0,0,1,2-1.58,20.17,20.17,0,0,1,5.73-2.43,19.86,19.86,0,0,1,6.18-.58A8.66,8.66,0,0,1,194.09,254.85Z" style="fill:#fafafa"></path><path d="M248.81,321a3.21,3.21,0,0,1,.21.66c.12.47.29,1.11.49,1.9l1.78,7.14c1.49,6.13,3.55,14.66,5.92,24.45l.1.42-.41-.12-10.48-2.95-30.62-8.7.22-.08-5.2,9-1.44,2.44-.39.63a1.16,1.16,0,0,1-.14.2s0-.08.1-.23l.33-.65,1.36-2.49c1.21-2.19,2.93-5.29,5.05-9.1l.07-.13.15,0L246.56,352,257,355l-.31.3c-2.3-9.8-4.3-18.35-5.74-24.49-.69-3-1.24-5.44-1.64-7.16l-.41-1.93A5.16,5.16,0,0,1,248.81,321Z" style="fill:#263238"></path><path d="M271.34,318.92a2.1,2.1,0,0,1,.2.58c.13.45.28,1,.48,1.71.41,1.55,1,3.69,1.65,6.3,1.37,5.4,3.22,12.74,5.28,20.85,1,4.07,2,7.94,2.82,11.5a27,27,0,0,1,.78,9.65,13.54,13.54,0,0,1-2.29,6.1,7.24,7.24,0,0,1-1.64,1.75,20.38,20.38,0,0,0,1.47-1.86,14,14,0,0,0,2.1-6,27.19,27.19,0,0,0-.89-9.5c-.88-3.53-1.84-7.41-2.86-11.48-2-8.12-3.8-15.48-5.12-20.88l-1.5-6.34c-.15-.71-.28-1.28-.38-1.73A4,4,0,0,1,271.34,318.92Z" style="fill:#263238"></path><g style="opacity:0.30000000000000004"><path d="M278.8,377.74c6,.56,9.51-2.88,10.16-7.57.35-2.59-.5-5.17-1.34-7.65-3.69-10.81-7.43-21.72-13.28-31.54,2.21,9.82,5,19.25,7.24,29.08a30.28,30.28,0,0,1,.94,8.36,15,15,0,0,1-3.72,9.32"></path></g><path d="M256.65,289.15a12.25,12.25,0,0,0,15.56-9.3,7.18,7.18,0,0,0,6.21,1.65,11.85,11.85,0,0,0,5.78-3.12,14.42,14.42,0,0,0,4.86-10.86,10.59,10.59,0,0,0-6.57-9.52c-3.85-1.38-8.72.42-10.31,4.19-.72-2.14,1.12-5,.68-7.25-.88-4.45-3.54-7.05-5.79-7.14" style="fill:#263238"></path><path d="M261.49,288c4.41-7.68,5.67-17.9,6.78-26.75.53-4.17,1.45-10.1-1.39-12.7-3-2.79-3.33-7.09-6.83-9.25s-8.23-2.33-11.53.14" style="fill:#263238"></path><path d="M238.6,303.28v-12S226.05,289,225.31,279s-.48-33.28-.48-33.28h0a33.05,33.05,0,0,1,34.33,2.18l-.5,35.4,0,11.53-10.27,8.34-9.81,7.72Z" style="fill:#ffbe9d"></path><path d="M235,266.65c1.68-2.15,4.41-3,6.66-1.52a6,6,0,0,1,1.91,7.31,7.53,7.53,0,0,1-4.78,3.74s4.52,8.24,7.4,10.43c3.42,2.6,5,3.88,9.25,4.38s3.66.54,6.06-3a13.78,13.78,0,0,0,2.35-8.17q.2-11.13.38-22.25a32.75,32.75,0,0,0-.51-8,10.74,10.74,0,0,0-4.1-6.59c-2.38-1.6-5.38-1.73-8.08-2.63-3.38-1.11-6.26-3.41-9.42-5.07s-7-2.64-10.21-1c-2.27,1.18-3.79,3.53-6,4.84-3.14,1.86-7.44,1.45-9,6.24a8.34,8.34,0,0,0,.06,5.11c2.16,6.5,10,9.1,15.6,6.27.11,1.1-.94,3.56.2,7,.36,1.11.49,2.81,2.18,2.83" style="fill:#263238"></path><path d="M236.75,272.93s0,.19.14.43a1.43,1.43,0,0,0,1.09.56,2.73,2.73,0,0,0,2.51-2.79,2.9,2.9,0,0,0-.72-2.12,2.86,2.86,0,0,0-1.53-.91c-1-.21-1.58.17-1.54.24s.6,0,1.41.25a2.53,2.53,0,0,1,1.69,2.51,2.33,2.33,0,0,1-1.83,2.31C237.16,273.46,236.82,272.86,236.75,272.93Z" style="fill:#eb996e"></path><path d="M287.75,267.64a3.68,3.68,0,0,1-.29.95,10.53,10.53,0,0,1-1.34,2.34,11.69,11.69,0,0,1-7.46,4.58,11.48,11.48,0,0,1-8.48-2.19,10.63,10.63,0,0,1-1.94-1.87,3.31,3.31,0,0,1-.54-.83,20.79,20.79,0,0,0,2.69,2.4,11.62,11.62,0,0,0,8.19,2,11.81,11.81,0,0,0,7.25-4.29A21.55,21.55,0,0,0,287.75,267.64Z" style="fill:#455a64"></path><path d="M286.36,266a3,3,0,0,1-.35.77,11.34,11.34,0,0,1-1.36,1.87,12.53,12.53,0,0,1-6.5,3.88,12.28,12.28,0,0,1-7.53-.71,10.68,10.68,0,0,1-2-1.14,2.54,2.54,0,0,1-.64-.55c.06-.09,1,.66,2.79,1.35A12.78,12.78,0,0,0,278,272a13.14,13.14,0,0,0,6.35-3.62C285.71,267,286.27,266,286.36,266Z" style="fill:#455a64"></path><path d="M269.53,278.94s-.14.1-.42.23a4.53,4.53,0,0,1-1.32.35A7.17,7.17,0,0,1,263,278.2a13.87,13.87,0,0,1-4.51-5.86c-1.22-2.5-2.19-5.44-4.09-8a9.4,9.4,0,0,0-3.43-2.93,12,12,0,0,0-4.11-1.08c-2.73-.28-5.25-.1-7.36-.39a11.79,11.79,0,0,1-4.77-1.49,7.37,7.37,0,0,1-1.09-.82,2,2,0,0,1-.32-.35s.5.43,1.51,1a12.41,12.41,0,0,0,4.71,1.29c2.07.24,4.57,0,7.37.28a12.31,12.31,0,0,1,4.28,1.1,10.07,10.07,0,0,1,3.63,3.07c2,2.63,2.92,5.6,4.1,8.08a13.87,13.87,0,0,0,4.29,5.77,7.18,7.18,0,0,0,4.56,1.42A8.08,8.08,0,0,0,269.53,278.94Z" style="fill:#455a64"></path><path d="M268.55,275.31a1.22,1.22,0,0,1-.45.05,5.11,5.11,0,0,1-1.29-.16,8.2,8.2,0,0,1-3.9-2.65,15.19,15.19,0,0,1-1.88-2.69c-.58-1-1.1-2.17-1.68-3.35A23.37,23.37,0,0,0,257.3,263a10.16,10.16,0,0,0-1.43-1.58,6.85,6.85,0,0,0-.86-.64,4.75,4.75,0,0,0-.94-.58,11.81,11.81,0,0,0-4.13-1.21,31.7,31.7,0,0,0-4.08-.21,56.59,56.59,0,0,1-7-.19,12.46,12.46,0,0,1-4.53-1.35,8.71,8.71,0,0,1-1.07-.72,1.52,1.52,0,0,1-.34-.29s.53.32,1.5.83a13.43,13.43,0,0,0,4.48,1.17,62.44,62.44,0,0,0,7,.07,33,33,0,0,1,4.15.18,12.29,12.29,0,0,1,4.31,1.26,5.19,5.19,0,0,1,1,.61,6.31,6.31,0,0,1,.92.69,10.49,10.49,0,0,1,1.49,1.65,23,23,0,0,1,2.07,3.61c.57,1.19,1.08,2.33,1.63,3.35a15.2,15.2,0,0,0,1.78,2.66,8.14,8.14,0,0,0,3.68,2.69A10.07,10.07,0,0,0,268.55,275.31Z" style="fill:#455a64"></path><path d="M271,280.45s-.23-.13-.56-.47a10.45,10.45,0,0,1-1.21-1.54,12.46,12.46,0,0,1-1.94-6.17,12.3,12.3,0,0,1,1.45-6.3,9.6,9.6,0,0,1,1.08-1.65c.3-.35.49-.53.52-.5s-.58.84-1.28,2.31a13.06,13.06,0,0,0,.48,12.11C270.33,279.65,271.05,280.39,271,280.45Z" style="fill:#FF725E"></path></g><g id="freepik--Plant--inject-46"><path d="M410.14,418.9c6.9,2.41,15.9.25,21.8-4.06s10.15-10.48,13.91-16.74c1.61-2.68,3.18-5.46,3.68-8.54s-.24-6.54-2.62-8.55c-3.71-3.12-9.39-1.53-13.6.87a46.89,46.89,0,0,0-23.17,37" style="fill:#FF725E"></path><path d="M417.55,435.41c4.14,5.47,11.26,7.9,18.11,8.22s13.62-1.58,20-4c2.33-.89,4.87-2.11,5.67-4.47a5.68,5.68,0,0,0-1.22-5.27,11.66,11.66,0,0,0-4.62-3.15,31.56,31.56,0,0,0-20.16-1.09c-6.63,1.71-12.42,5.56-17.8,9.8" style="fill:#FF725E"></path><path d="M410,389.34c5.71.12,10-4.89,12.62-10a37,37,0,0,0,3.4-23.07c-.52-2.92-1.63-6.06-4.24-7.47s-6.11-.48-8.33,1.55-3.45,4.93-4.33,7.81c-3.07,9.92-2.41,21.31.88,31.16" style="fill:#FF725E"></path><path d="M391.28,420.93c9.74-16.57,11.36-36.85,5.61-55.19-.94-3-2.7-6.38-5.81-6.57-3.44-.22-5.6,3.62-6.55,6.94-3.34,11.64-2.63,24-1.9,36.11.46,7.45,3,13.81,8.65,18.71" style="fill:#FF725E"></path><path d="M381.15,427.75a39.82,39.82,0,0,0-23.62-25.06c-2.59-1-5.88-1.53-7.81.45s-1.31,5.18-.09,7.61c2,3.91,5.14,7.06,8.31,10.07,2.89,2.75,5.88,5.5,9.53,7.1s10.35,2,13.68-.17" style="fill:#FF725E"></path><path d="M441.52,385.17s0,.06-.17.15l-.52.41-2,1.53-1.48,1.09c-.54.41-1.09.89-1.7,1.38-1.21,1-2.63,2.09-4.06,3.46l-2.3,2.08c-.79.73-1.56,1.55-2.39,2.37-1.67,1.61-3.29,3.49-5,5.43a107.36,107.36,0,0,0-17.8,28.8c-.95,2.43-1.91,4.72-2.6,6.94-.36,1.1-.76,2.16-1.06,3.19s-.57,2-.84,3c-.57,1.89-.91,3.65-1.27,5.18-.17.76-.35,1.47-.48,2.13s-.22,1.27-.31,1.82c-.19,1.06-.34,1.9-.45,2.5-.06.27-.1.48-.13.66l-.06.22a.59.59,0,0,1,0-.23c0-.18.05-.39.08-.66.09-.61.22-1.46.37-2.52.09-.55.18-1.16.28-1.83s.28-1.37.44-2.15c.34-1.53.65-3.3,1.21-5.2.26-1,.53-2,.82-3s.67-2.1,1-3.21c.68-2.23,1.62-4.54,2.57-7a105,105,0,0,1,17.87-28.9c1.76-1.94,3.4-3.82,5.1-5.43.83-.81,1.6-1.63,2.41-2.36l2.32-2.07c1.45-1.35,2.9-2.42,4.12-3.41.62-.49,1.18-.95,1.72-1.36l1.51-1.06c.89-.62,1.59-1.1,2.09-1.46l.56-.37C441.45,385.2,441.52,385.16,441.52,385.17Z" style="fill:#263238"></path><path d="M454.42,431.11a3.89,3.89,0,0,1-.67-.11c-.44-.08-1.07-.25-1.9-.39a54.57,54.57,0,0,0-7.05-.86A51.46,51.46,0,0,0,403,447.13a53.39,53.39,0,0,0-4.35,5.61c-.49.68-.81,1.25-1.07,1.61a3.27,3.27,0,0,1-.39.56,4.59,4.59,0,0,1,.31-.6c.23-.38.53-1,1-1.67a47.22,47.22,0,0,1,4.26-5.72,50.6,50.6,0,0,1,42-17.49,47.4,47.4,0,0,1,7.07,1c.82.16,1.45.36,1.88.47A2.94,2.94,0,0,1,454.42,431.11Z" style="fill:#263238"></path><path d="M418.46,355.44s0,.09,0,.26-.09.43-.16.74c-.15.68-.36,1.64-.64,2.85-.56,2.48-1.41,6-2.49,10.46-2.14,8.82-5.26,21-8.51,34.43-1.61,6.74-3.07,13.17-4.33,19s-2.29,11.17-3.07,15.64c-.43,2.23-.74,4.25-1,6s-.54,3.31-.73,4.57l-.45,2.89-.12.74-.06.26a.74.74,0,0,1,0-.26c0-.2.05-.45.08-.76.09-.69.21-1.66.37-2.9s.36-2.8.65-4.58.57-3.81,1-6.05c.74-4.48,1.76-9.79,3-15.67s2.69-12.32,4.3-19.05c3.25-13.47,6.42-25.61,8.65-34.41,1.1-4.37,2-7.92,2.63-10.42.31-1.2.55-2.15.72-2.83.09-.3.15-.54.2-.73A.9.9,0,0,1,418.46,355.44Z" style="fill:#263238"></path><path d="M396.1,452a.8.8,0,0,1-.07-.21c0-.16-.08-.35-.13-.59l-.48-2.31c-.41-2-1-4.91-1.58-8.52-1.25-7.21-2.73-17.22-3.64-28.36-.44-5.57-.69-10.89-.8-15.73s0-9.2.12-12.86c0-1.82.16-3.48.24-4.93s.18-2.7.27-3.72.16-1.77.22-2.34c0-.25.05-.45.07-.61a1.15,1.15,0,0,1,0-.21.67.67,0,0,1,0,.21c0,.17,0,.37,0,.61,0,.58-.08,1.36-.13,2.36s-.14,2.26-.19,3.72-.16,3.1-.18,4.92c-.11,3.66-.12,8,0,12.84s.38,10.14.82,15.7c.91,11.12,2.34,21.13,3.51,28.35.58,3.61,1.08,6.52,1.44,8.54.16,1,.29,1.75.39,2.32,0,.24.07.44.09.61A1.42,1.42,0,0,1,396.1,452Z" style="fill:#263238"></path><path d="M396.82,454.12a2.57,2.57,0,0,1-.26-.57c-.16-.43-.37-1-.64-1.67l-.46-1.2-.62-1.41-.71-1.61c-.26-.57-.58-1.14-.89-1.76l-1-1.93-1.18-2c-.78-1.43-1.79-2.85-2.77-4.39a105.65,105.65,0,0,0-7.33-9.38,115.18,115.18,0,0,0-8.42-8.42c-1.4-1.18-2.68-2.36-4-3.35l-1.85-1.47L365,413.63c-1.1-.84-2.14-1.54-3.05-2.15s-1.7-1.15-2.37-1.55l-1.5-1a3,3,0,0,1-.52-.36,4.49,4.49,0,0,1,.56.28l1.56.89c.68.37,1.49.88,2.41,1.48s2,1.28,3.1,2.11l1.78,1.27,1.86,1.45c1.31,1,2.61,2.16,4,3.33a108.45,108.45,0,0,1,8.48,8.44,98.4,98.4,0,0,1,7.34,9.44c1,1.56,2,3,2.75,4.44l1.17,2.06c.33.68.66,1.33,1,2s.62,1.2.86,1.78.47,1.12.69,1.63.4,1,.59,1.43l.42,1.22.56,1.7A4.64,4.64,0,0,1,396.82,454.12Z" style="fill:#263238"></path><path d="M437.91,404.39c0,.07-1.18.08-3.08.18a54.89,54.89,0,0,0-14.51,2.76c-1.8.59-2.9,1-2.93,1a3,3,0,0,1,.73-.4c.49-.23,1.2-.53,2.09-.87a44.29,44.29,0,0,1,7.19-2,43.84,43.84,0,0,1,7.42-.76c1,0,1.73,0,2.26,0A3.29,3.29,0,0,1,437.91,404.39Z" style="fill:#263238"></path><path d="M445.26,440.27a22.33,22.33,0,0,0-9.74-10.49,6.82,6.82,0,0,1,2,.87,17.42,17.42,0,0,1,7,7.58A6.9,6.9,0,0,1,445.26,440.27Z" style="fill:#263238"></path><path d="M420.21,368.89c.09.1-1.7,1.88-3.66,4.29s-3.35,4.51-3.46,4.44a27.31,27.31,0,0,1,7.12-8.73Z" style="fill:#263238"></path><path d="M414.32,358.73a16.41,16.41,0,0,1,.89,3.85,17.23,17.23,0,0,1,.44,3.92,16.41,16.41,0,0,1-.89-3.85A17.28,17.28,0,0,1,414.32,358.73Z" style="fill:#263238"></path><path d="M396.11,390.61a47.52,47.52,0,0,1-2.85,6A48.44,48.44,0,0,1,390,402.4a48.27,48.27,0,0,1,2.85-6A50.5,50.5,0,0,1,396.11,390.61Z" style="fill:#263238"></path><path d="M385.27,379.79a27.53,27.53,0,0,1,2.41,4.34,27.94,27.94,0,0,1,2,4.54,25.68,25.68,0,0,1-2.42-4.34A26,26,0,0,1,385.27,379.79Z" style="fill:#263238"></path><path d="M369.33,416.81c0,.13-2-.25-4.37-.41s-4.38-.08-4.39-.21a17.45,17.45,0,0,1,8.76.62Z" style="fill:#263238"></path><path d="M380.22,449.53,385.64,478a4,4,0,0,0,3.92,3.25h16a4,4,0,0,0,3.94-3.34l4.71-28.42Z" style="fill:#263238"></path><polygon points="381.98 458.8 412.6 458.8 414.23 449.53 380.21 449.53 381.98 458.8" style="fill:#455a64"></polygon><polygon points="381.98 458.8 382.62 462.18 412.13 462.18 412.6 458.8 381.98 458.8" style="fill:#fafafa"></polygon></g></svg>