<?xml version="1.0" encoding="utf-8"?>
<!-- Generator: Adobe Illustrator 23.0.2, SVG Export Plug-In . SVG Version: 6.00 Build 0)  -->
<svg version="1.1" id="Layer_1" xmlns="http://www.w3.org/2000/svg" xmlns:xlink="http://www.w3.org/1999/xlink" x="0px" y="0px"
	 viewBox="0 0 455.16 129.03" style="enable-background:new 0 0 455.16 129.03;" xml:space="preserve">
<style type="text/css">
	.st0{fill:#333333;}
	.st1{fill:url(#SVGID_1_);}
	.st2{fill:#F96F4A;}
</style>
<g>
	<g>
		<path class="st0" d="M99.74,124.29l4.34-5.18c2.77,2.21,5.86,3.37,9.12,3.37c2.09,0,3.21-0.72,3.21-1.93v-0.08
			c0-1.17-0.92-1.81-4.74-2.69c-5.98-1.37-10.6-3.05-10.6-8.84v-0.08c0-5.22,4.14-9,10.88-9c4.78,0,8.51,1.29,11.57,3.74l-3.9,5.5
			c-2.57-1.81-5.38-2.77-7.87-2.77c-1.89,0-2.81,0.8-2.81,1.81v0.08c0,1.29,0.96,1.85,4.86,2.73c6.47,1.41,10.48,3.49,10.48,8.76
			v0.08c0,5.74-4.54,9.16-11.37,9.16C107.94,128.95,103.2,127.38,99.74,124.29z"/>
		<path class="st0" d="M132.86,100.35h12.05c7.11,0,11.69,3.65,11.69,9.88v0.08c0,6.63-5.1,10.12-12.09,10.12h-3.86v8.03h-7.79
			V100.35z M144.35,114.33c2.77,0,4.46-1.45,4.46-3.65v-0.08c0-2.41-1.69-3.7-4.5-3.7h-3.66v7.43H144.35z"/>
		<path class="st0" d="M164.37,100.35h13.29c4.3,0,7.27,1.12,9.16,3.05c1.65,1.61,2.49,3.78,2.49,6.55v0.08
			c0,4.3-2.29,7.15-5.78,8.63l6.71,9.8h-9l-5.66-8.51h-0.08h-3.33v8.51h-7.79V100.35z M177.3,113.85c2.65,0,4.18-1.29,4.18-3.33
			v-0.08c0-2.21-1.61-3.33-4.22-3.33h-5.1v6.75H177.3z"/>
		<path class="st0" d="M198.73,100.35h7.83v28.11h-7.83V100.35z"/>
		<path class="st0" d="M217.05,100.35h7.27l11.57,14.86v-14.86h7.71v28.11h-6.83l-12.01-15.42v15.42h-7.71V100.35z"/>
		<path class="st0" d="M252.31,114.49v-0.08c0-8.19,6.43-14.62,15.14-14.62c4.94,0,8.43,1.53,11.41,4.1l-4.58,5.5
			c-2.01-1.69-4.02-2.65-6.79-2.65c-4.06,0-7.19,3.41-7.19,7.71v0.08c0,4.54,3.17,7.79,7.63,7.79c1.89,0,3.33-0.4,4.5-1.16v-3.41
			h-5.54v-5.7h12.93v12.65c-2.97,2.45-7.11,4.34-12.21,4.34C258.86,129.03,252.31,123.01,252.31,114.49z"/>
		<path class="st0" d="M286.75,124.29l4.34-5.18c2.77,2.21,5.86,3.37,9.12,3.37c2.09,0,3.21-0.72,3.21-1.93v-0.08
			c0-1.17-0.92-1.81-4.74-2.69c-5.99-1.37-10.6-3.05-10.6-8.84v-0.08c0-5.22,4.14-9,10.88-9c4.78,0,8.51,1.29,11.57,3.74l-3.9,5.5
			c-2.57-1.81-5.38-2.77-7.87-2.77c-1.89,0-2.81,0.8-2.81,1.81v0.08c0,1.29,0.96,1.85,4.86,2.73c6.47,1.41,10.48,3.49,10.48,8.76
			v0.08c0,5.74-4.54,9.16-11.37,9.16C294.94,128.95,290.2,127.38,286.75,124.29z"/>
	</g>
	<g>
		<g>
			<path class="st0" d="M46.16,85.93c-4.7,3.06-10.42,4.86-16.69,4.86C12.54,90.79,0,78.17,0,62.42v-0.16
				c0-15.75,12.7-28.53,29.62-28.53S59.09,46.35,59.09,62.1v0.16c0,5.8-1.72,11.29-4.86,15.75l5.64,4.78l-7.68,8.54L46.16,85.93z
				 M35.19,76.29l-7.6-6.51l7.68-8.62l7.45,6.74c0.63-1.65,0.94-3.45,0.94-5.33v-0.16c0-7.99-5.72-14.97-14.18-14.97
				c-8.31,0-13.87,6.9-13.87,14.81v0.16c0,7.92,5.64,14.89,14.03,14.89C31.66,77.31,33.54,76.91,35.19,76.29z"/>
			<g>
				<path class="st0" d="M66.19,65.63v-30.8h15.44v30.48c0,7.92,4,11.68,10.11,11.68c6.11,0,10.11-3.61,10.11-11.29V34.83h15.44
					v30.41c0,17.71-10.11,25.47-25.7,25.47S66.19,82.79,66.19,65.63z"/>
			</g>
			<g>
				<path class="st0" d="M142.1,34.44h14.66l23.35,55.25h-16.3l-4-9.8h-21.16l-3.92,9.8h-15.99L142.1,34.44z M155.43,68.06
					l-6.11-15.6l-6.19,15.6H155.43z"/>
			</g>
			<g>
				<path class="st0" d="M184.81,34.83H199l22.57,29v-29h15.05v54.86h-13.32L199.86,59.6v30.09h-15.05V34.83z"/>
			</g>
			<g>
				<path class="st0" d="M258.38,48.15h-16.46V34.83h48.12v13.32h-16.46v41.53h-15.2V48.15z"/>
			</g>
			<g>
				<path class="st0" d="M330.64,62.06v3.64c0,7.68-4,11.29-10.11,11.29c-6.11,0-10.11-3.76-10.11-11.68V34.83h-15.44v30.8
					c0,17.16,9.8,25.08,25.39,25.08s25.7-7.76,25.7-25.47v-3.17H330.64z"/>
			</g>
			<g>
				<path class="st0" d="M361.47,34.83h16.06l13.09,21.24l13.09-21.24h16.06v54.86h-15.12v-31.5l-14.03,21.47h-0.31l-13.95-21.32
					v31.35h-14.89V34.83z"/>
			</g>
		</g>
		<linearGradient id="SVGID_1_" gradientUnits="userSpaceOnUse" x1="353.5594" y1="61.8698" x2="365.1723" y2="22.9021">
			<stop  offset="0" style="stop-color:#333333"/>
			<stop  offset="1" style="stop-color:#F96F4A"/>
		</linearGradient>
		<path class="st1" d="M392.9,0c-34.33,0-62.26,27.93-62.26,62.26h15.47c0-25.8,20.99-46.79,46.79-46.79c0,0,0,0,0,0L392.9,0
			C392.9,0,392.9,0,392.9,0z"/>
		<path class="st2" d="M392.9,0v15.47c25.8,0,46.79,20.99,46.79,46.79s-20.99,46.79-46.79,46.79c-14.14,0-27.37-6.3-36.31-17.27
			l-11.99,9.77c11.89,14.6,29.49,22.98,48.3,22.98c34.33,0,62.26-27.93,62.26-62.26C455.16,27.93,427.23,0,392.9,0z"/>
	</g>
</g>
</svg>
