<svg fill="none" viewBox="0 0 67 113" xmlns="http://www.w3.org/2000/svg"><g fill="#a1a1a3"><path d="m19.5615 32.575h13.8449c3.3677 0 7.8094 0 10.103 1.3928 2.5154 1.4967 4.4902 4.2199 4.4902 7.9687 0 4.0606-2.1342 7.1096-5.6682 8.5509v.1108c4.705.9632 7.2689 4.4903 7.2689 9.1953 0 5.6128-4.0121 10.9622-11.5997 10.9622h-18.4391zm5.0723 16.4087h10.1654c5.7722 0 8.1281-2.0858 8.1281-6.0979 0-5.294-3.7418-6.0424-8.1281-6.0424h-10.1654zm0 17.4828h12.7293c4.3793 0 7.1649-2.6748 7.1649-6.8393 0-4.9753-4.0121-6.3612-8.2875-6.3612h-11.6067z"/><path d="m62.5929 51.6722c0 16.0346-12.9995 29.034-29.041 29.034-16.0345 0-29.03399-12.9994-29.03399-29.034 0-16.0345 12.99949-29.034 29.03399-29.034 16.0415.0069 29.041 12.9995 29.041 29.034zm-29.041-33.4619c-18.4667 0-33.44106 14.9744-33.44106 33.4411 0 18.4668 14.97436 33.4411 33.44106 33.4411 18.4737 0 33.4481-14.9743 33.4481-33.4411 0-18.4667-14.9744-33.4411-33.4481-33.4411z"/><path d="m66.9307 92.1536h-66.750524v4.3863h66.750524z"/><path d="m64.845 87.3239c.0832 0 .1594-.007.2356-.007.0693-.0069.1386-.0208.1941-.0415.0623-.0278.1039-.0693.1386-.1178.0346-.0555.0485-.1248.0485-.2148 0-.0763-.0139-.1456-.0416-.1871-.0277-.0485-.0693-.0832-.1178-.104-.0485-.0277-.097-.0416-.1663-.0554-.0624-.0069-.1178-.0069-.1871-.0069h-.4781v.7414h.3741zm.1594-1.0325c.2772 0 .4781.0554.6167.1663.1317.1109.201.2772.201.5058 0 .2149-.0624.3604-.1733.4643-.1177.097-.2633.1525-.4434.1732l.6652 1.0256h-.3881l-.6375-1.0048h-.3811v1.0048h-.3672v-2.3283h.9077zm-1.6422 1.8293c.0762.2079.194.395.3464.5475.1455.1524.3188.2702.5197.3603.1941.0831.4158.1247.6445.1247.2356 0 .4504-.0416.6444-.1247.2009-.0901.3742-.2079.5197-.3603.1455-.1525.2633-.3326.3395-.5475.0832-.2078.1317-.4296.1317-.6721s-.0416-.4643-.1317-.6721c-.0831-.2079-.2009-.3881-.3395-.5405-.1524-.1525-.3257-.2703-.5197-.3534-.194-.0832-.4158-.1317-.6444-.1317-.2287 0-.4504.0485-.6445.1317-.2009.09-.3811.2078-.5197.3534-.1524.1524-.2633.3326-.3464.5405-.0832.2078-.1248.4226-.1248.6721 0 .2425.0416.4712.1248.6721zm-.3257-1.4621c.1039-.2425.2494-.4434.4296-.6236s.395-.3118.6375-.4158c.2425-.1039.5058-.1524.7692-.1524.2771 0 .5335.0485.783.1524.2356.104.4504.2356.6236.4158.1802.1802.3326.388.4296.6236.1109.2426.1594.5059.1594.79s-.0485.5474-.1594.7899c-.1039.2495-.2494.4574-.4296.6375-.1801.1871-.388.3188-.6236.4227-.2495.097-.5059.1456-.783.1456-.2703 0-.5267-.0486-.7692-.1456-.2425-.1039-.4573-.2356-.6375-.4227-.1802-.1801-.3257-.388-.4296-.6375-.1109-.2425-.1525-.5058-.1525-.7899-.0069-.2772.0347-.5474.1525-.79z"/><path d="m8.26673 3.50626c-.15938-.25639-.3534-.47813-.589-.66522-.2356-.19402-.50584-.33954-.8038-.45041-.29797-.10394-.60979-.15938-.93547-.15938-.59592 0-1.10177.1178-1.52446.34647-.41576.22867-.7553.54049-1.01168.92854-.25639.38804-.45041.83152-.56821 1.33043-.1178.49199-.18016 1.00476-.18016 1.53832 0 .50585.05543.99783.18016 1.47596.1178.47812.30489.90774.56821 1.29579.25638.38111.59592.69293 1.01168.92164.41576.2286.92161.3464 1.52446.3464.81074 0 1.44824-.2494 1.89865-.74141.45734-.49892.73451-1.15027.83845-1.96101h2.57084c-.0693.7553-.2426 1.43438-.5267 2.04416-.2841.60976-.6513 1.12946-1.11561 1.55216-.46426.4296-1.00475.7553-1.62147.984-.61671.2217-1.30272.3395-2.04416.3395-.9216 0-1.75313-.1593-2.49457-.485-.74144-.3188-1.35815-.7623-1.87092-1.3305-.50585-.5612-.893893-1.22646-1.164138-1.98869-.270245-.7553-.408832-1.57297-.408832-2.453 0-.90081.138587-1.73927.408832-2.51536.270245-.76915.658288-1.44823 1.164138-2.01644.50584-.57514 1.12948-1.025545 1.87092-1.351225.73451-.32568 1.56604-.491985 2.49457-.491985.66522 0 1.29579.0970111 1.88479.284104.58899.194022 1.12256.471196 1.58682.838456.46427.36725.85233.81766 1.15723 1.35815s.4989 1.16413.5751 1.85707h-2.57078c-.04158-.29796-.14552-.57514-.30489-.83152z"/><path d="m14.7041 10.2624c.3603.3465.88.5266 1.5521.5266.4851 0 .9008-.1178 1.2542-.3603.3465-.2425.5613-.4989.6445-.76914h2.1134c-.3395 1.04634-.8592 1.80164-1.5591 2.25204-.6998.4504-1.5452.6791-2.5361.6791-.686 0-1.3097-.1109-1.8571-.3326-.5543-.2218-1.0186-.5336-1.4066-.9355-.3812-.4019-.6791-.887-.887-1.45516-.2079-.56128-.3118-1.18492-.3118-1.85707 0-.65136.1039-1.26114.3187-1.82242s.5197-1.05327.9147-1.4621.8662-.73451 1.4136-.97011 1.1503-.3534 1.8155-.3534c.7414 0 1.3928.14552 1.9471.42962.5544.29104 1.0048.67215 1.3582 1.15721.3534.48505.6098 1.0394.7691 1.65611.1594.61672.2149 1.26808.1663 1.94715h-6.3057c.0416.7553.2356 1.32351.596 1.66997zm2.7163-4.60108c-.2911-.31183-.7276-.4712-1.3097-.4712-.3811 0-.6998.06236-.9562.19402s-.4574.29103-.6098.47813c-.1525.19402-.2564.39497-.3188.60978-.0623.21481-.097.4019-.1108.57514h3.9012c-.1109-.60979-.3118-1.06712-.5959-1.38587z"/><path d="m23.7815 3.61719v1.62147h.0346c.1109-.27024.2634-.5197.4574-.7553.194-.22867.4088-.42962.6583-.589.2494-.15937.5127-.29103.7968-.38111.2842-.09008.5752-.13166.8801-.13166.1594 0 .3326.02772.5266.08315v2.23126c-.1109-.02079-.2495-.04158-.4088-.05544-.1594-.01386-.3118-.02771-.4574-.02771-.4365 0-.8107.07622-1.1156.22174-.3049.14551-.5474.34646-.7345.60285s-.3188.54742-.395.88696-.1178.70679-.1178 1.10177v3.94283h-2.3975v-8.75181z"/><path d="m33.5589 3.6171v1.60761h-1.7601v4.33085c0 .40884.0693.67904.201.81074.1316.1317.4088.201.8107.201.1386 0 .2633-.007.3881-.0139.1247-.0139.2425-.0277.3534-.0485v1.8571c-.201.0346-.4297.0554-.6791.0692-.2495.0139-.492.0208-.7276.0208-.3742 0-.7276-.0277-1.0533-.0762-.3326-.0485-.6236-.1455-.88-.2979-.2564-.1456-.4504-.3534-.6028-.6237-.1456-.2702-.2218-.6236-.2218-1.0671v-5.16239h-1.4551v-1.60761h1.4551v-2.619297h2.3976v2.619297z"/><path d="m34.9517 2.26598v-1.9818h2.3975v1.9818zm2.4044 1.35122v8.7379h-2.3975v-8.7379z"/><path d="m38.3055 5.22481v-1.60761h1.4344v-.67908c0-.77608.2426-1.41358.7276-1.9125.4851-.498913 1.2196-.74144 2.1966-.74144.2148 0 .4296.006929.6444.027717.2149.013859.4227.034647.6237.041576v1.794707c-.2772-.03465-.5682-.04851-.8731-.04851-.3257 0-.5613.07623-.6999.22867-.1386.15245-.2079.40883-.2079.76916v.52663h1.6562v1.60761h-1.6562v7.13726h-2.4044v-7.14419z"/><path d="m45.4288 2.26598v-1.9818h2.3976v1.9818zm2.3976 1.35122v8.7379h-2.3976v-8.7379z"/><path d="m51.6168 10.2624c.3603.3465.88.5266 1.5522.5266.485 0 .9008-.1178 1.2542-.3603.3465-.2425.5613-.4989.6444-.76914h2.1135c-.3396 1.04634-.8593 1.80164-1.5522 2.25204-.6999.4504-1.5452.6791-2.5361.6791-.686 0-1.3097-.1109-1.8571-.3326-.5544-.2218-1.0186-.5336-1.4067-.9355-.3811-.4019-.6791-.887-.8869-1.45516-.2079-.56128-.3119-1.18492-.3119-1.85707 0-.65136.1109-1.26114.3188-1.82242.2148-.56128.5197-1.05327.9147-1.4621.3949-.40883.8661-.73451 1.4136-.97011.5474-.2356 1.1502-.3534 1.8155-.3534.7414 0 1.3928.14552 1.9471.42962.5544.29104 1.0048.67215 1.3582 1.15721.3534.48505.6097 1.0394.7691 1.65611.1594.61672.2148 1.26808.1733 1.94715h-6.3058c.0208.7553.2218 1.32351.5821 1.66997zm2.7094-4.60108c-.2841-.31183-.7276-.4712-1.3097-.4712-.3811 0-.6998.06236-.9562.19402s-.4574.29103-.6098.47813c-.1524.19402-.2564.39497-.3188.60978-.0623.21481-.097.4019-.1108.57514h3.9012c-.1039-.60979-.3049-1.06712-.5959-1.38587z"/><path d="m64.6162 11.2395c-.2841.4712-.6513.8177-1.1087 1.0255-.4573.2079-.9701.3119-1.5452.3119-.6514 0-1.2265-.1248-1.7254-.3811-.4989-.2564-.9078-.596-1.2265-1.0325-.3188-.4366-.5613-.9355-.7276-1.49676-.1663-.56128-.2425-1.15028-.2425-1.76006 0-.589.0831-1.15028.2425-1.6977.1594-.54741.4088-1.02554.7276-1.44823.3187-.41576.7276-.7553 1.2057-1.00476.4851-.25639 1.0463-.38111 1.6908-.38111.5197 0 1.0117.11087 1.4759.3326.4712.22174.8385.5405 1.1087.97012h.0347v-4.39322h2.3975v12.07092h-2.2728v-1.1156zm-.1039-4.31699c-.0693-.33261-.1802-.62364-.3465-.88003s-.3742-.45734-.6375-.61671c-.2564-.15938-.589-.2356-.977-.2356-.3881 0-.7276.07622-.9978.2356-.2703.15937-.4851.36725-.6514.62364-.1594.25639-.2772.55435-.3534.88696s-.1109.67908-.1109 1.0394c0 .33954.0416.67908.1178 1.01169.0763.33954.2079.6375.3812.90775.1732.26329.3949.47809.6582.64439.2634.1663.5821.2426.9563.2426.395 0 .7206-.0763.9909-.2356.2633-.1594.4781-.3673.6375-.63754.1594-.26331.2702-.5682.3395-.90081.0693-.33954.104-.68601.104-1.04634 0-.36032-.0416-.70679-.1109-1.0394z"/><path d="m6.03547 105.16c-.11779-.845-.92853-1.49-1.85706-1.49-1.67691 0-2.30748 1.428-2.30748 2.917 0 1.414.63057 2.841 2.30748 2.841 1.14334 0 1.78777-.783 1.92636-1.905h1.81549c-.19402 2.12-1.65612 3.478-3.74185 3.478-2.63316 0-4.17841-1.968-4.17841-4.414 0-2.522 1.54525-4.49 4.17841-4.49 1.87092 0 3.43696 1.095 3.66563 3.063z"/><path d="m11.8214 104.481c1.9403 0 3.1876 1.282 3.1876 3.25 0 1.954-1.2473 3.236-3.1876 3.236-1.92632 0-3.18053-1.289-3.18053-3.236 0-1.968 1.24728-3.25 3.18053-3.25zm0 5.211c1.1572 0 1.4968-.991 1.4968-1.961 0-.991-.3465-1.975-1.4968-1.975-1.1433 0-1.4898.991-1.4898 1.975 0 .977.3465 1.961 1.4898 1.961z"/><path d="m16.0554 104.633h1.6076v1.144h.0278c.3048-.776 1.1433-1.31 1.9679-1.31.1178 0 .2633.021.3672.055v1.573c-.1593-.034-.4088-.055-.6097-.055-1.2404 0-1.67.894-1.67 1.975v2.772h-1.6908z"/><path d="m20.6771 104.647h1.6076v.783h.0208c.4019-.651 1.0671-.949 1.8294-.949 1.9332 0 2.7994 1.559 2.7994 3.305 0 1.643-.9008 3.181-2.7024 3.181-.7346 0-1.4413-.319-1.8433-.929h-.0277v2.931h-1.6907v-8.322zm4.5734 3.098c0-.977-.395-1.989-1.476-1.989-1.1087 0-1.4621.991-1.4621 1.989s.3811 1.954 1.476 1.954c1.1018-.007 1.4621-.956 1.4621-1.954z"/><path d="m30.6486 104.481c1.9402 0 3.1945 1.282 3.1945 3.25 0 1.954-1.2543 3.236-3.1945 3.236-1.9263 0-3.1736-1.289-3.1736-3.236 0-1.968 1.2473-3.25 3.1736-3.25zm0 5.211c1.1572 0 1.5037-.991 1.5037-1.961 0-.991-.3465-1.975-1.5037-1.975-1.1433 0-1.4898.991-1.4898 1.975 0 .977.3465 1.961 1.4898 1.961z"/><path d="m34.8823 104.633h1.6076v1.144h.0277c.3049-.776 1.1434-1.31 1.961-1.31.1178 0 .2634.021.3673.055v1.573c-.1524-.034-.4019-.055-.6098-.055-1.2403 0-1.67.894-1.67 1.975v2.772h-1.6907v-6.154z"/><path d="m39.3449 106.539c.097-1.587 1.5106-2.058 2.8965-2.058 1.2265 0 2.7025.27 2.7025 1.746v3.202c0 .561.0554 1.115.2148 1.372h-1.7185c-.0555-.194-.1109-.395-.1178-.596-.5336.561-1.3166.762-2.0719.762-1.1641 0-2.0927-.582-2.0927-1.843 0-1.393 1.0464-1.726 2.0927-1.871 1.0394-.153 2.0026-.118 2.0026-.811 0-.728-.5059-.832-1.0948-.832-.6445 0-1.0602.264-1.1226.929zm3.9082 1.247c-.291.25-.88.264-1.4067.361-.5266.104-.9978.284-.9978.907 0 .631.4851.783 1.0394.783 1.3166 0 1.372-1.046 1.372-1.413v-.638z"/><path d="m48.36 104.647h1.2403v1.13h-1.2403v3.049c0 .575.1455.713.7137.713.1802 0 .3465-.014.5266-.048v1.323c-.2841.049-.6583.063-.9909.063-1.0324 0-1.9402-.243-1.9402-1.462v-3.631h-1.0255v-1.13h1.0255v-1.843h1.6908z"/><path d="m52.5592 103.698h-1.6908v-1.393h1.6908zm-1.6908.949h1.6908v6.153h-1.6908z"/><path d="m56.8762 104.481c1.9402 0 3.1944 1.282 3.1944 3.25 0 1.954-1.2542 3.236-3.1944 3.236-1.9264 0-3.1737-1.289-3.1737-3.236-.0069-1.968 1.2473-3.25 3.1737-3.25zm0 5.211c1.1572 0 1.5037-.991 1.5037-1.961 0-.991-.3465-1.975-1.5037-1.975-1.1434 0-1.4898.991-1.4898 1.975 0 .977.3464 1.961 1.4898 1.961z"/><path d="m61.1584 104.647h1.6077v.86h.0346c.4296-.693 1.1641-1.026 1.8848-1.026 1.7947 0 2.252 1.012 2.252 2.536v3.784h-1.6907v-3.479c0-1.012-.298-1.511-1.081-1.511-.9216 0-1.3097.513-1.3097 1.767v3.229h-1.6907v-6.16z"/></g></svg>